# xmcd
#
# Track frame offsets: 
#        150
#        15122
#        36785
#
# Disc length: 772 seconds
#
# Revision: 0
# Processed by: cddbd v1.5.2PL0 Copyright (c) Steve Scherf et al.
# Submitted via: ExactAudioCopyFreeDBPlugin 1.0
#
DISCID=12030203
DTITLE=Eve Selis - Blame It On The Rain
DYEAR=2004
DGENRE=Country
TTITLE0=Blame It On The Rain-Radio Edit
TTITLE1=Blame In On The Rain-Album Version
TTITLE2=Homky Tonk Town
EXTD=
EXTT0=
EXTT1=
EXTT2=
PLAYORDER=
